o obj1
v 18.41660118 -10.52537251 0
v 17.25512695 -11.41364098 0
v 17.35512733 -11.58684635 0
v 15.90512848 -11.77537155 0
v 15.90512848 -11.97537136 0
v 18.8051281 -9.07537174 0
v 18.24339676 -10.42537212 0
v 17.15553474 -11.24020195 0
v 16.98441696 -9.7060194 0.09999999
v 16.53577423 -10.15466118 0.09999999
v 15.90512848 -11.57537174 0
v 18.40512848 -9.07537174 0
v 18.06995773 -10.32577896 0
v 15.90512848 -10.32537174 0.10000099
v 17.15512848 -9.07537174 0.10000099
v 15.90512848 -9.07537174 0.10000099
v 26.98704529 -14.41214561 0
v 27.86059761 -12.51742935 0
v 27.89673996 -11.8123827 0
v 15.90512943 -21.37537193 0
v 15.90512943 -21.5753727 0
v 16.60051346 -21.49701881 0
v 21.24189568 -20.15729141 0
v 19.34717941 -21.03084183 0
v 20.66817474 -20.56860352 0
v 25.36528778 -16.6196022 0
v 26.80685043 -14.32536888 0
v 27.70175552 -11.76787853 0
v 28.00512886 -9.07537079 0
v 28.20512772 -9.07537079 0
v 18.59762955 -20.87200165 0
v 18.64213371 -21.06698608 0
v 21.15511894 -19.97709656 0
v 23.5740509 -18.69190216 0
v 23.44935226 -18.53553391 0
v 25.52165413 -16.74430084 0
v 28.3267746 -9.77076435 0
v 26.79493332 -15.09144115 0
v 25.18320084 -17.36381531 0
v 21.92119217 -19.96517944 0
v 23.10622978 -19.22057343 0
v 23.82633972 -20.23509216 0.09999999
v 22.41339493 -22.58990097 0.09999999
v 25.25747108 -20.80284691 0.09999999
v 26.1110096 -18.19265938 0.09999999
v 27.63259888 -18.42772484 0.09999999
v 27.06484413 -16.99659157 0.09999999
v 29.41965485 -15.58364582 0.09999999
v 27.88391495 -15.69304943 0.09999999
v 21.14461899 -21.71789551 0.09999999
v 19.24575424 -23.69864655 0.09999999
v 15.90512848 -24.07537079 0.10000099
v 16.67019272 -22.73915291 0.09999999
v 15.90512943 -22.8253727 0.10000099
v 28.54764938 -14.31486893 0.09999999
v 30.52840042 -12.41600609 0.09999999
v 29.05604935 -12.86205101 0.09999999
v 29.39646912 -11.37057495 0.09999999
v 30.90512848 -9.07537079 0.10000099
v 29.56890869 -9.84044266 0.09999999
v 17.99129295 -21.34031296 0
v 27.39835739 -13.83842468 0
v 28.17006874 -11.16154289 0
v 26.05032349 -16.27647972 0
v 25.02240944 -19.28125763 0.09999999
v 28.40512848 -9.07537079 0
v 29.65512848 -9.07537079 0.10000099
v 22.52279854 -21.05416107 0.09999999
v 24.19356728 -18.35345078 0
v 19.69180107 -22.22629356 0.09999999
v 18.20032501 -22.56671143 0.09999999
v 15.90512943 -21.17537117 0
v 18.60512924 -9.07537174 0
vn 0 0 1
vn 0 0 1
vn 0 0 1
vn 0 0 1
vn 0 0 1
vn 0 0 1
vn 0 0 1
vn 0.01663 -0.02882 0.99945
vn 0.04022 -0.02336 0.99892
vn 0.02336 -0.04022 0.99892
vn 0.00891 -0.03326 0.99941
vn 0.03326 -0.00891 0.99941
vn 0.02882 -0.01663 0.99945
vn 0.01254 -0.04654 0.99884
vn 0.04654 -0.01254 0.99884
vn 0 0 1
vn 0 0 1
vn -0.0399 0.01149 0.99914
vn 0 0 1
vn -0 0 1
vn -0.00482 0.04275 0.99907
vn -0.0045 0.0399 0.99919
vn 0 0 1
vn -0.01149 0.0399 0.99914
vn -0.01589 0.03836 0.99914
vn 0 0 1
vn 0 0 1
vn 0 0 1
vn 0 0 1
vn 0 0 1
vn 0 0 1
vn 0 0 1
vn 0 0 1
vn 0 0 1
vn 0 0 1
vn 0 0 1
vn -0.0399 0.0045 0.99919
vn -0.03634 0.02009 0.99914
vn -0.03096 0.02767 0.99914
vn -0.02009 0.03634 0.99914
vn -0.02403 0.03386 0.99914
vn -0.02237 0.03153 0.99925
vn 0 0 1
vn 0 0 1
vn -0.02883 0.02576 0.99925
vn -0 0 1
vn -0.03153 0.02237 0.99925
vn -0 0 1
vn -0.03384 0.0187 0.99925
vn -0.0148 0.03572 0.99925
vn 0 0 1
vn 0 0 1
vn -0.0045 0.0399 0.99919
vn -0.00417 0.03706 0.9993
vn -0.03572 0.0148 0.99925
vn -0 -0 1
vn -0.03715 0.0107 0.99925
vn -0.03812 0.00648 0.99925
vn -0 -0 1
vn -0.0399 0.0045 0.99919
vn -0.00695 0.04094 0.99914
vn -0.03836 0.01589 0.99914
vn -0.04094 0.00695 0.99914
vn -0.03386 0.02403 0.99914
vn -0.02576 0.02883 0.99925
vn -0.04275 0.00482 0.99907
vn -0.03706 0.00417 0.9993
vn -0.0187 0.03384 0.99925
vn -0.02767 0.03096 0.99914
vn -0.0107 0.03715 0.99925
vn -0.00648 0.03812 0.99925
vn 0 0 1
vn 0 0 1
vt 0.19302 0.94288
vt 0.6901 0.43596
vt 0.81067 0.93796
vt 0.19302 0.94288
vt 0.94056 0.68698
vt 0.94056 0.68698
vt 0.81067 0.93796
vt 0.19302 0.94288
vt 0.6901 0.43596
f 1/1/1 2/1/2 3/1/3
f 3/1/3 4/1/4 5/1/5
f 6/1/6 7/1/7 1/1/1
f 8/2/8 9/2/9 10/2/10
f 2/3/2 11/3/11 4/3/4
f 7/3/7 12/3/12 13/3/13
f 7/3/7 8/3/8 2/3/2
f 8/4/8 14/4/14 11/4/11
f 13/4/13 15/4/15 9/4/9
f 15/5/15 16/5/16 14/5/14
f 9/6/9 14/6/14 10/6/10
f 17/7/17 18/7/18 19/7/19
f 20/7/20 21/7/21 22/7/22
f 23/7/23 24/7/24 25/7/25
f 26/8/26 17/8/17 27/8/27
f 27/8/27 19/8/19 28/8/28
f 29/8/29 19/8/19 30/8/30
f 31/8/31 20/8/20 32/8/32
f 33/8/33 32/8/32 23/8/23
f 33/8/33 34/8/34 35/8/35
f 35/8/35 36/8/36 26/8/26
f 19/7/19 37/7/37 30/7/30
f 36/7/36 38/7/38 17/7/17
f 34/7/34 39/7/39 36/7/36
f 34/7/34 40/7/40 41/7/41
f 42/5/42 43/5/43 44/5/44
f 45/5/45 44/5/44 46/5/46
f 47/5/47 48/5/48 49/5/49
f 50/5/50 51/5/51 43/5/43
f 52/5/52 53/5/53 54/5/54
f 55/5/55 56/5/56 57/5/57
f 58/5/58 59/5/59 60/5/60
f 21/8/21 53/8/53 22/8/22
f 24/7/24 32/7/32 61/7/61
f 62/7/62 17/7/17 38/7/38
f 63/7/63 19/7/19 18/7/18
f 40/7/40 23/7/23 25/7/25
f 64/7/64 36/7/36 39/7/39
f 65/5/65 42/5/42 44/5/44
f 66/8/66 60/8/60 67/8/67
f 62/9/62 57/9/57 18/9/18
f 67/5/67 60/5/60 59/5/59
f 64/8/64 45/8/45 47/8/47
f 41/9/41 68/9/68 42/9/42
f 47/5/47 45/5/45 46/5/46
f 38/8/38 55/8/55 62/8/62
f 39/9/39 65/9/65 45/9/45
f 55/5/55 49/5/49 48/5/48
f 41/8/41 65/8/65 69/8/69
f 25/9/25 70/9/70 50/9/50
f 69/7/69 34/7/34 41/7/41
f 18/8/18 58/8/58 63/8/63
f 64/9/64 49/9/49 38/9/38
f 58/5/58 57/5/57 56/5/56
f 40/8/40 50/8/50 68/8/68
f 61/9/61 53/9/53 71/9/71
f 68/5/68 50/5/50 43/5/43
f 24/8/24 71/8/71 70/8/70
f 71/5/71 52/5/52 51/5/51
f 70/5/70 71/5/71 51/5/51
f 63/9/63 60/9/60 37/9/37
f 66/7/66 30/7/30 37/7/37
f 32/7/32 22/7/22 61/7/61
f 29/7/29 6/7/6 28/7/28
f 1/7/1 27/7/27 28/7/28
f 1/7/1 26/7/26 27/7/27
f 31/7/31 33/7/33 3/7/3
f 35/7/35 3/7/3 33/7/33
f 35/7/35 1/7/1 3/7/3
f 72/7/72 31/7/31 5/7/5
f 5/7/5 31/7/31 3/7/3
f 6/7/6 1/7/1 28/7/28
f 1/1/1 7/1/7 2/1/2
f 3/1/3 2/1/2 4/1/4
f 6/1/6 73/1/73 7/1/7
f 8/2/8 13/2/13 9/2/9
f 2/3/2 8/3/8 11/3/11
f 7/3/7 73/3/73 12/3/12
f 7/3/7 13/3/13 8/3/8
f 8/4/8 10/4/10 14/4/14
f 13/4/13 12/4/12 15/4/15
f 9/6/9 15/6/15 14/6/14
f 17/7/17 62/7/62 18/7/18
f 23/7/23 32/7/32 24/7/24
f 26/8/26 36/8/36 17/8/17
f 27/8/27 17/8/17 19/8/19
f 29/8/29 28/8/28 19/8/19
f 31/8/31 72/8/72 20/8/20
f 33/8/33 31/8/31 32/8/32
f 33/8/33 23/8/23 34/8/34
f 35/8/35 34/8/34 36/8/36
f 19/7/19 63/7/63 37/7/37
f 36/7/36 64/7/64 38/7/38
f 34/7/34 69/7/69 39/7/39
f 34/7/34 23/7/23 40/7/40
f 42/5/42 68/5/68 43/5/43
f 45/5/45 65/5/65 44/5/44
f 47/5/47 46/5/46 48/5/48
f 50/5/50 70/5/70 51/5/51
f 55/5/55 48/5/48 56/5/56
f 58/5/58 56/5/56 59/5/59
f 21/8/21 54/8/54 53/8/53
f 66/8/66 37/8/37 60/8/60
f 62/9/62 55/9/55 57/9/57
f 64/8/64 39/8/39 45/8/45
f 41/9/41 40/9/40 68/9/68
f 38/8/38 49/8/49 55/8/55
f 39/9/39 69/9/69 65/9/65
f 41/8/41 42/8/42 65/8/65
f 25/9/25 24/9/24 70/9/70
f 18/8/18 57/8/57 58/8/58
f 64/9/64 47/9/47 49/9/49
f 40/8/40 25/8/25 50/8/50
f 61/9/61 22/9/22 53/9/53
f 24/8/24 61/8/61 71/8/71
f 71/5/71 53/5/53 52/5/52
f 63/9/63 58/9/58 60/9/60
f 32/7/32 20/7/20 22/7/22
f 35/7/35 26/7/26 1/7/1
# Vertices: 73, normals: 73, texture coordinates: 9, faces: 119